<svg width="475" height="278" viewBox="0 0 475 278" fill="none" xmlns="http://www.w3.org/2000/svg">
<path d="M46.2018 184.38C13.5361 196.649 -14.663 157.006 8.44642 130.858C8.87775 130.369 12.7022 124.627 13.0664 124.1C18.1465 116.71 20.9261 108.937 22.383 103.598C22.7473 102.256 24.7026 102.39 24.8847 103.77C25.6324 109.502 26.3321 117.41 25.249 121.666C24.1563 125.95 25.0668 129.612 28.0861 128.365C31.115 127.119 43.9206 122.854 45.3295 104.633C45.9238 97.0225 54.4353 85.6164 60.2917 78.6001C61.4611 77.2007 63.704 78.4276 63.1672 80.1721C61.3365 86.1148 59.2374 94.0512 59.4483 98.8149C59.8221 107.154 59.0073 118.349 66.6466 120.86C74.2858 123.372 74.1421 132.171 78.5224 132.487C82.9028 132.803 97.5583 119.691 98.4017 108.007C99.2548 96.3324 99.4848 79.712 108.265 66.6572C112.396 60.5132 116.469 53.7174 119.613 48.2348C120.649 46.4232 123.399 47.3626 123.15 49.4329C122.508 54.7526 122.604 60.2257 125.23 62.0181C130.818 65.8521 139.531 47.0271 136.378 36.5219C134.566 30.4642 135.63 20.5246 136.866 13.1824C137.221 11.0546 140.202 10.8054 140.883 12.8566C143.087 19.4415 147.458 28.1542 155.96 33.7902C169.388 42.6851 169.935 52.5577 171.305 67.3378C172.676 82.1083 170.203 94.2525 170.203 94.2525C170.203 94.2525 176.893 93.0543 180.996 84.9071C183.584 79.7791 185.462 69.8778 186.507 63.2449C186.795 61.4238 189.296 61.1746 189.948 62.8903C191.645 67.3665 193.945 73.7597 195.939 80.498C199.188 91.444 193.945 100.789 188.482 108.707C183.018 116.624 165.439 135.535 148.57 138.708C131.7 141.88 115.76 147.21 104.22 155.395C87.7624 167.089 66.2728 176.846 46.2018 184.38Z" fill="#419FFE"/>
<path d="M104.066 146.079C104.066 146.079 115.588 117.094 114.131 109.397C112.674 101.7 113.92 79.2232 115.588 75.2741C117.255 71.3251 119.124 66.3313 119.124 66.3313C119.124 66.3313 117.457 78.1879 123.495 90.8881C129.534 103.588 129.534 108.362 129.534 108.362C129.534 108.362 132.658 104.202 133.694 96.294C134.738 88.3864 138.064 79.2327 138.064 79.2327C138.064 79.2327 141.601 96.9171 143.892 103.579C146.183 110.24 143.681 118.771 143.681 118.771C143.681 118.771 147.793 116.576 149.72 112.109C150.4 110.537 151.177 105.659 151.177 105.659C151.177 105.659 153.669 115.435 148.886 121.263C144.103 127.091 134.317 129.794 125.786 132.707C117.246 135.612 104.066 146.079 104.066 146.079Z" fill="#FBFBFD"/>
<path d="M48.1475 176.568C51.0231 175.361 55.7197 173.223 58.231 168.996C60.7422 164.769 60.7422 155.127 60.7422 155.127C60.7422 155.127 57.3108 158.299 56.7741 160.811C56.2469 163.322 53.2084 166.226 53.2084 166.226C53.2084 166.226 52.2883 161.338 53.7356 156.718C55.1829 152.098 51.3585 144.43 51.3585 144.43C51.3585 144.43 52.0199 151.695 50.3042 154.868C48.5885 158.041 44.0931 161.338 43.2975 165.699C42.502 170.06 37.9587 179.022 37.9587 179.022C37.9587 179.022 43.355 178.581 48.1475 176.568Z" fill="#FBFBFD"/>
<path d="M418.972 213.078L437.644 233.551L366.878 256.105L354.954 234.855L418.972 213.078Z" fill="#FBFBFD" stroke="black" stroke-width="2" stroke-miterlimit="10" stroke-linecap="round" stroke-linejoin="round"/>
<path d="M349.558 190.256L345.35 243.865L426.64 242.82L423.487 186.403L349.558 190.256Z" fill="#FBFBFD" stroke="black" stroke-width="2" stroke-miterlimit="10" stroke-linecap="round" stroke-linejoin="round"/>
<path d="M133.013 141.698L99.734 131.088L55.2596 175.275L97.4336 183.594L133.013 141.698Z" fill="#FBFBFD" stroke="black" stroke-width="2" stroke-miterlimit="10" stroke-linecap="round" stroke-linejoin="round"/>
<path d="M155.682 128.787L78.7811 160.638C78.7811 160.638 145.924 200.521 146.212 199.659C146.499 198.796 179.213 174.987 179.213 174.987L155.682 128.787Z" fill="#FBFBFD" stroke="black" stroke-width="2" stroke-miterlimit="10" stroke-linecap="round" stroke-linejoin="round"/>
<path d="M178.58 109.732C178.58 109.732 153.755 131.692 139.665 147.344C125.575 162.996 119.632 169.255 119.632 169.255C119.632 169.255 106.865 170.463 98.1429 175.946C89.4205 181.428 77.8035 189.269 72.6755 194.061C67.538 198.854 71.2761 202.305 71.2761 202.305C71.2761 202.305 69.3974 206.416 70.2505 208.64C71.1036 210.864 72.9918 211.382 72.9918 211.382C72.9918 211.382 70.7202 215.724 73.2027 217.506C75.5319 219.193 79.6726 217.372 79.6726 217.372C79.6726 217.372 78.4457 220.545 79.8068 221.915C81.1678 223.286 84.3788 223.181 88.9988 219.586C93.6188 215.992 104.546 206.762 104.546 206.762C104.546 206.762 112.357 199.745 116.469 199.745C120.581 199.745 120.581 199.745 120.581 199.745C120.581 199.745 120.543 203.426 118.022 206.369C114.696 210.25 111.849 215.829 112.195 218.398C112.54 220.966 114.658 222.692 114.658 222.692C114.658 222.692 123.495 215.656 127.09 211.554C130.684 207.442 135.294 200.09 135.984 197.177C136.665 194.263 136.838 181.946 137.863 179.377C138.889 176.808 212.655 130.254 212.655 130.254C212.655 130.254 214.879 117.592 209.233 111.774C203.588 105.956 178.58 109.732 178.58 109.732Z" fill="#FBFBFD" stroke="black" stroke-width="2" stroke-miterlimit="10" stroke-linecap="round" stroke-linejoin="round"/>
<path d="M71.2665 202.295C71.2665 202.295 81.2157 194.694 90.1489 189" stroke="black" stroke-width="2" stroke-miterlimit="10" stroke-linecap="round" stroke-linejoin="round"/>
<path d="M72.9728 211.362C72.9728 211.362 87.82 197.541 94.5486 193.783" stroke="black" stroke-width="2" stroke-miterlimit="10" stroke-linecap="round" stroke-linejoin="round"/>
<path d="M79.6534 217.353C79.6534 217.353 96.5039 201.557 101.296 198.71" stroke="black" stroke-width="2" stroke-miterlimit="10" stroke-linecap="round" stroke-linejoin="round"/>
<path d="M300.281 58.9414V29.0457C300.281 13.5564 314.036 1 331.011 1H399.85C416.825 1 430.58 13.5564 430.58 29.0457V139.791L300.281 58.9414Z" fill="#808080" stroke="#231F20" stroke-width="2" stroke-miterlimit="10"/>
<path d="M398.23 162.68C398.23 162.68 347.583 212.033 345.005 213.327C342.426 214.621 321.915 211.87 314.85 215.963C307.777 220.056 287.504 231.587 287.313 232.526C287.131 233.456 291.961 237.731 293.083 237.922C294.195 238.104 278.571 253.364 278.571 253.92C278.571 254.476 282.664 257.265 286.009 256.153C289.354 255.041 293.821 251.504 293.821 251.504C293.821 251.504 284.859 266.744 284.859 267.971C284.859 269.208 291.942 270.435 295.124 267.559C298.307 264.684 304.671 253.699 304.671 253.699L310.834 251.744L302.332 270.492C302.332 270.492 306.598 271.978 310.393 269.102C314.189 266.227 320.17 256.067 320.17 256.067C320.17 256.067 317.505 267.77 318.627 268.288C319.758 268.805 323.515 266.955 326.458 262.738C329.88 257.83 330.33 253.402 330.33 253.402C330.33 253.402 345.216 249.808 352.711 241.699C360.207 233.59 365.546 227.321 365.546 227.321C365.546 227.321 398.643 211.075 413.394 202.266C428.145 193.458 435.037 187.706 435.037 187.706C435.037 187.706 449.021 188.665 454.188 175.064C459.364 161.463 449.203 145.187 449.203 145.187C449.203 145.187 447.286 119.519 439.053 101.135C430.819 82.7506 405.342 55.5484 382.741 48.2638C360.14 40.9887 317.486 40.5574 292.201 53.1905C266.916 65.8331 257.082 78.5237 257.082 78.5237C257.082 78.5237 240.605 81.2074 227.397 86.7572C214.179 92.3165 206.904 97.2911 206.904 97.2911C206.904 97.2911 200.588 94.9907 195.22 95.3741C191.367 95.6521 183.958 101.365 180.085 104.557C178.571 105.812 177.967 107.863 178.552 109.742C178.552 109.742 194.07 108.4 201.92 115.493C209.77 122.576 209.559 130.896 209.559 130.896L268.363 139.638C268.363 139.638 301.997 145.887 308.687 143.318C315.378 140.75 325.394 131.692 325.394 131.692C325.394 131.692 341.765 137.481 357.58 139.379C370.357 140.903 376.233 142.504 376.233 142.504C376.233 142.504 377.603 143.702 383.096 148.159C388.588 152.616 391.329 153.306 391.329 153.306L398.23 162.68Z" fill="#FBFBFD" stroke="black" stroke-width="2" stroke-miterlimit="10" stroke-linecap="round" stroke-linejoin="round"/>
<path d="M365.919 165.143L306.818 154.533L268.574 176.904L286.354 216.672L365.919 165.143Z" fill="#FBFBFD" stroke="black" stroke-width="2" stroke-miterlimit="10" stroke-linecap="round" stroke-linejoin="round"/>
<path d="M290.945 201.173L324.963 180.518L294.415 173.856L274.287 184.927L277.728 197.732L290.945 201.173Z" fill="#808080"/>
<path d="M307.048 158.568L325.202 162.105L310.106 172.332L292.901 168.699L307.048 158.568Z" fill="#808080"/>
<path d="M291.29 222.107L366.015 174.316V165.584L287.706 214.803L291.29 222.107Z" fill="#FBFBFD" stroke="black" stroke-width="2" stroke-miterlimit="10" stroke-linecap="round" stroke-linejoin="round"/>
<path d="M315.751 136.014C315.751 136.014 317.582 143.98 313.662 152.827C311.036 158.769 306.732 163.715 303.272 165.105C303.272 165.105 295.7 167.492 297.559 158.597C299.428 149.692 315.751 136.014 315.751 136.014Z" fill="#FBFBFD" stroke="black" stroke-width="2" stroke-miterlimit="10" stroke-linecap="round" stroke-linejoin="round"/>
<path d="M280.718 183.623C280.718 183.623 291.166 181.121 298.268 175.102C305.534 168.948 307.815 164.779 307.815 164.779L302.141 162.718C302.141 162.718 304.988 154.379 310.403 149.213C315.819 144.047 318.148 138.899 318.838 129.343C319.835 115.483 311.582 101.25 305.754 98.1919C297.578 93.9074 284.437 94.2908 284.437 94.2908C284.437 94.2908 263.101 99.4092 252.73 105.544C242.359 111.678 236.225 120.995 236.225 120.995V116.125C236.225 116.125 232.209 116.336 230.301 122.049C228.394 127.762 228.576 133.743 228.576 133.743L268.382 139.618L280.718 183.623Z" fill="black"/>
<path d="M391.348 153.286C391.348 153.286 391.099 143.443 398.997 139.398" stroke="black" stroke-width="2" stroke-miterlimit="10" stroke-linecap="round" stroke-linejoin="round"/>
<path d="M376.252 142.484C376.252 142.484 371.968 138.372 369.734 127.906" stroke="black" stroke-width="2" stroke-miterlimit="10" stroke-linecap="round" stroke-linejoin="round"/>
<path d="M398.23 162.68C398.23 162.68 410.748 150.881 429.631 160.217C445.791 168.21 435.046 187.687 435.046 187.687" stroke="black" stroke-width="2" stroke-miterlimit="10" stroke-linecap="round" stroke-linejoin="round"/>
<path d="M293.006 238.354C293.006 238.354 301.211 231.74 307.7 228.462" stroke="black" stroke-width="2" stroke-miterlimit="10" stroke-linecap="round" stroke-linejoin="round"/>
<path d="M293.83 251.495C293.83 251.495 299.994 243.922 302.773 241.977C305.553 240.031 313.24 234.05 313.24 234.05" stroke="black" stroke-width="2" stroke-miterlimit="10" stroke-linecap="round" stroke-linejoin="round"/>
<path d="M310.844 251.734C310.844 251.734 316.02 245.025 321.205 240.395" stroke="black" stroke-width="2" stroke-miterlimit="10" stroke-linecap="round" stroke-linejoin="round"/>
<path d="M320.189 256.047C320.189 256.047 323.707 249.75 326.851 246.328" stroke="black" stroke-width="2" stroke-miterlimit="10" stroke-linecap="round" stroke-linejoin="round"/>
<path d="M284.102 104.039L299.39 93.524C299.39 93.524 312.579 86.4503 322.72 97.3101C336.771 112.349 330.57 127.033 330.57 127.033L325.413 131.672" stroke="black" stroke-width="2" stroke-miterlimit="10" stroke-linecap="round" stroke-linejoin="round"/>
<path d="M206.923 97.2816C206.923 97.2816 220.256 103.732 223.611 117.151C226.764 129.746 224.981 133.168 224.981 133.168" stroke="black" stroke-width="2" stroke-miterlimit="10" stroke-linecap="round" stroke-linejoin="round"/>
<path d="M257.206 89.6517C257.206 89.6517 256.008 95.4986 258.797 107.863" stroke="black" stroke-width="2" stroke-miterlimit="10" stroke-linecap="round" stroke-linejoin="round"/>
<path d="M449.232 145.168C449.232 145.168 440.126 131.624 410.624 135.966" stroke="black" stroke-width="2" stroke-miterlimit="10" stroke-linecap="round" stroke-linejoin="round"/>
<path d="M386.527 97.7319C386.527 97.7319 411.285 84.5813 429.66 96.3804" stroke="black" stroke-width="2" stroke-miterlimit="10" stroke-linecap="round" stroke-linejoin="round"/>
<path d="M268.382 139.618L291.29 222.107L168.305 202.199L146.49 121.483L268.382 139.618Z" fill="#FBFBFD" stroke="black" stroke-width="2" stroke-miterlimit="10" stroke-linecap="round" stroke-linejoin="round"/>
<path d="M400.023 267.406C391.885 256.623 399.563 239.619 408.534 230.139C417.506 220.66 437.308 208.314 442.676 202.611C446.961 198.058 450.287 191.809 452.357 187.246C452.97 185.904 454.974 186.336 454.983 187.812C454.993 194.186 454.542 203.723 452.021 209.522C447.977 218.81 449.002 221.331 449.002 221.331C449.002 221.331 450.737 225.05 454.255 218.263C455.855 215.177 457.552 213.643 459.057 212.924C460.744 212.119 462.642 213.73 462.162 215.541C461.654 217.477 461.453 220.564 462.69 225.184C465.182 234.491 465 243.577 465 243.577L469.965 235.267C470.559 234.27 472.035 234.366 472.476 235.44C474.124 239.456 476.655 247.795 473.482 255.837C467.415 271.249 454.015 275.793 435.66 277.527C426.161 278.409 407.988 277.959 400.023 267.406Z" fill="#419FFE"/>
<path d="M416.452 272.582C419.317 273.176 425.529 271.738 426.391 266.419C427.503 259.623 423.87 248.332 425.212 242.408C427.752 231.184 433.954 222.577 433.954 222.577C433.954 222.577 425.231 229.162 422.001 236.916C419.5 242.916 416.547 248.063 416.547 248.063C416.547 248.063 412.55 235.085 412.761 237.625C412.867 238.89 413.375 242.638 409.617 248.265C405.668 254.15 405.007 259.795 407.48 265.757C408.63 268.518 412.55 271.767 416.452 272.582Z" fill="#FBFBFD"/>
</svg>
