<svg width="410" height="519" viewBox="0 0 410 519" fill="none" xmlns="http://www.w3.org/2000/svg">
<path d="M123.1 453.5C136.15 437.46 138.18 420.72 131.61 395.63C122.78 361.88 96.2801 359.29 86.0701 349.18C75.8501 339.07 75.9701 323.47 67.3501 313.12C65.8701 311.34 64.46 309.76 63.15 308.36C61.15 306.23 57.72 308.45 58.78 311.17C60.4 315.34 61.7 320.1 61.7 324.63C61.7 336.6 65.23 349.19 65.23 349.19C65.23 349.19 50.9501 341.5 48.9901 331.79C47.0401 322.08 50.19 307.55 38.01 299.16C28.89 292.88 23.11 283.02 19.76 275.44C18.66 272.94 14.9501 273.58 14.7101 276.3C14.0701 283.69 13.5 293.14 13.89 300.17C14.78 316.28 22.8101 314.74 23.5801 325.28C24.3501 335.83 23.3301 361.4 29.3301 372.64C37.1001 387.2 55.6301 395.42 55.6301 395.42C55.6301 395.42 38.53 395.63 24.65 375.26C17.59 364.9 9.38005 360.34 4.27005 358.39C2.20005 357.6 0.140051 359.58 0.830051 361.68C5.22005 375.18 18.38 414.27 28.98 431.91C41.9 453.42 57.43 462.89 82.78 466.78C98.53 469.21 113.82 464.9 123.1 453.5Z" fill="#419FFE"/>
<path d="M104.67 455.07C98.0801 457.94 84.6101 459.83 73.5501 457.28C62.4901 454.73 46.3801 439.38 46.3801 439.38C46.3801 439.38 57.1501 438.69 62.1801 441.81C67.2101 444.93 76.9101 444.48 76.9101 444.48C76.9101 444.48 70.2201 435.15 60.1801 430.21C50.1401 425.27 43.4501 406.67 43.4501 406.67C43.4501 406.67 54.5301 419.35 62.5701 421.53C70.6101 423.71 84.8401 419.61 91.8201 427.09C105.74 442.01 122.58 439.39 122.58 439.39C122.58 439.39 115.67 450.29 104.67 455.07Z" fill="white"/>
<path d="M104.95 396.98C104.95 396.98 93.6401 398.71 88.7201 400.44C83.8001 402.17 79.9401 404.96 80.0701 407.09C80.2001 409.22 87.1201 406.56 88.4501 406.42C89.7801 406.29 86.7201 409.48 85.3901 414.93C84.0601 420.38 82.2001 427.17 82.6001 429.83C83.0001 432.49 85.5301 432.76 85.5301 432.76C85.5301 432.76 86.4601 437.02 88.8601 437.68C91.2501 438.35 91.1101 437.89 91.1101 437.89C91.1101 437.89 91.5501 440.41 94.0701 440.41C96.6001 440.41 96.2901 438.63 96.2901 438.63C96.2901 438.63 96.4401 436.11 98.0701 431.67C99.9201 426.63 101.5 422.78 101.5 422.78C101.5 422.78 103.1 429.83 105.36 431.29C107.62 432.75 108.29 432.35 108.29 432.35C108.29 432.35 109.22 430.49 107.89 426.63C106.56 422.77 107.22 420.78 108.02 417.72C108.82 414.66 114.54 406.28 114.54 406.28L104.95 396.98Z" fill="white" stroke="black" stroke-width="2" stroke-linecap="round" stroke-linejoin="round"/>
<path d="M173.21 319.69C173.21 319.69 167.62 343.16 162.93 352.99C158.24 362.83 144.6 382.27 139.91 388.08C135.22 393.89 117.33 414.23 117.33 414.23L102.35 397.69C102.35 397.69 115.09 377.57 118 365.28C120.91 352.99 138.34 310.29 143.03 305.6C147.72 300.91 174.77 319.91 174.77 319.91L173.21 319.69Z" fill="#808080" stroke="black" stroke-width="2" stroke-miterlimit="10"/>
<path d="M85.53 432.77C85.53 432.77 88.43 421.75 91.1 417.31" stroke="black" stroke-width="2" stroke-linecap="round" stroke-linejoin="round"/>
<path d="M90.8601 436.62C90.8601 436.62 93.7601 425.6 96.4301 421.16" stroke="black" stroke-width="2" stroke-linecap="round" stroke-linejoin="round"/>
<path d="M211.63 326.34L186.68 296.43C186.68 296.43 188.05 282.9 175.76 281.29C163.47 279.68 151.56 272.23 145.85 279.55C140.14 286.87 137.29 298.42 138.03 299.9C138.77 301.39 140.64 309.33 142.5 310.82C144.36 312.31 146.35 313.8 146.35 313.8C146.35 313.8 158.51 323.73 164.1 324.97C169.69 326.21 174.77 330.8 179.12 331.67C183.47 332.54 211.63 326.34 211.63 326.34Z" fill="white"/>
<path d="M241.26 34.62L248.46 47.76L236.22 57.31L222.89 40.38L241.26 34.62Z" fill="white" stroke="black" stroke-width="2" stroke-linecap="round" stroke-linejoin="round"/>
<path d="M180.01 86.58L194.79 89.1L194.67 104.62L173.37 102.86L180.01 86.58Z" fill="white" stroke="black" stroke-width="2" stroke-linecap="round" stroke-linejoin="round"/>
<path d="M163.47 325.11L164.32 332.07C164.32 332.07 175.68 335 181.17 336.22C186.67 337.44 196.92 332.07 196.92 332.07C196.92 332.07 190.33 332.38 184.69 330.45C180.59 329.05 174.22 323.54 174.22 323.54" fill="#808080"/>
<path d="M163.47 325.11L164.32 332.07C164.32 332.07 175.68 335 181.17 336.22C186.67 337.44 196.92 332.07 196.92 332.07C196.92 332.07 190.33 332.38 184.69 330.45C180.59 329.05 174.22 323.54 174.22 323.54" stroke="black" stroke-width="2" stroke-miterlimit="10"/>
<path d="M136.35 298.87C136.35 298.87 141.65 311.48 154.15 319.85C166.64 328.22 171.81 325.13 175.48 322.8C181.61 318.91 182.67 312.19 182.67 312.19" stroke="black" stroke-width="2" stroke-linecap="round" stroke-linejoin="round"/>
<path d="M183.63 507.31C173.79 500.07 170.11 471.95 193.88 459.54C205.9 453.27 215.43 440.75 220.65 431.51C222.33 428.53 226.87 429.57 227.1 432.99C227.39 437.23 231.73 424.6 230.21 428.56C226.37 438.55 230.01 442.77 230.01 442.77C230.01 442.77 223.52 444.4 239.23 434.81C254.94 425.22 296.88 412.89 303.77 395.53C310.66 378.17 310.36 357.64 326.78 346.15C336.87 339.09 344.09 331.62 348.8 325.9C351.08 323.13 355.55 325.21 354.94 328.75C353.77 335.55 351.06 343.87 344.92 350.42C332.36 363.81 334.26 374.65 333.23 382.91C332.19 391.17 328.98 399.07 328.98 399.07C328.98 399.07 347.8 380.97 351.18 364.85C354.56 348.73 363.69 333.46 377.45 319.86C384.58 312.82 389.33 302.7 392.26 294.58C393.54 291.03 398.75 291.75 399.05 295.52C399.54 301.81 399.14 309.51 396.24 317.19C389.45 335.15 380 359.17 380 359.17C380 359.17 395.64 352.7 400.15 339.48C400.92 337.23 401.87 335.07 402.91 333.05C404.71 329.54 410.05 331.31 409.47 335.21C408.83 339.48 408.5 344.37 408.79 349.77C409.87 370.08 394.65 389.52 386.91 402.06C379.17 414.6 389.67 426.2 384.06 444.57C379.1 460.81 364.49 505.94 339.1 513.09C285.65 528.12 292.48 504.48 248.77 512.9C207.02 520.93 191.19 512.87 183.63 507.31Z" fill="#419FFE"/>
<path d="M216.07 401.26C216.07 401.26 205.81 407.65 203.45 409.47C201.09 411.3 198.83 413.33 199.8 415.27C200.77 417.21 202.81 416.45 206.46 414.73C210.11 413.01 212.69 411.94 213.01 412.26C213.33 412.58 212.8 422.57 213.33 427.08C213.86 431.59 213.97 439.1 215.58 439.75C217.19 440.4 217.83 439.96 218.26 437.5C218.69 435.04 219.23 424.29 219.87 424.51C220.51 424.73 221.37 441.69 222.12 443.73C222.87 445.77 224.59 446.2 225.66 445.88C226.73 445.56 227.59 445.02 227.59 445.02C227.59 445.02 228.99 446.74 230.49 446.52C231.99 446.3 232.85 444.8 232.85 444.8C232.85 444.8 235.32 444.8 236.18 444.37C237.04 443.94 238.11 435.14 238.11 435.14C238.11 435.14 237.68 428.59 237.25 425.16C236.82 421.73 238.82 433.7 241.22 433.96C243.1 434.17 243.59 424.61 240.48 418.28C237.37 411.95 234.48 404.71 234.48 404.71L216.07 401.26Z" fill="white" stroke="black" stroke-width="2" stroke-linecap="round" stroke-linejoin="round"/>
<path d="M206.99 187.32C206.99 187.32 217.99 165.07 220.99 156.31C223.99 147.55 231.99 130.3 231.99 130.3C231.99 130.3 205.26 123.54 199.76 122.54C194.26 121.54 189.98 120.55 189.98 120.55L191.23 88.54C191.23 88.54 250.49 93.04 254.49 95.04C258.49 97.04 272.74 123.55 272.74 132.05C272.74 140.55 243.48 202.82 243.48 202.82L206.99 187.32Z" fill="#808080" stroke="black" stroke-width="2" stroke-miterlimit="10"/>
<path d="M179.54 104.84C179.54 104.84 175.1 107.38 170.16 106.91C165.22 106.44 161.63 105.7 161.63 105.7L162.61 91.99L164.48 91.19C164.48 91.19 164.26 85.86 164.3 80.86C164.34 75.86 166.4 64.05 168.85 58.61C171.3 53.18 172.91 49.7 174.56 49.46C176.21 49.22 179.54 50.82 179.54 50.82C179.54 50.82 178.16 60.66 178.11 65.8C178.06 70.95 183.65 81.51 184.52 82.79C185.39 84.08 187.27 86.67 185.81 87.81C184.35 88.95 181.9 92.03 180.59 91.87C179.29 91.71 178.98 92.99 178.38 95.42C177.78 97.85 179.54 104.84 179.54 104.84Z" fill="#808080" stroke="black" stroke-width="2" stroke-miterlimit="10"/>
<path d="M178.81 85.09C178.81 85.09 182.37 82.7 183.06 81.57" stroke="black" stroke-width="2" stroke-linecap="round" stroke-linejoin="round"/>
<path d="M176.95 81.11C176.95 81.11 180.51 78.72 181.2 77.59" stroke="black" stroke-width="2" stroke-linecap="round" stroke-linejoin="round"/>
<path d="M175.62 77.26C175.62 77.26 179.18 74.87 179.87 73.74" stroke="black" stroke-width="2" stroke-linecap="round" stroke-linejoin="round"/>
<path d="M260.51 215.58C260.51 215.58 294.27 146.06 296.02 136.56C297.77 127.06 290.77 113.3 284.77 102.8C278.77 92.3 258.01 44.79 257.01 41.54C256.01 38.29 255.01 35.79 255.01 35.79C255.01 35.79 245.76 43.79 241.51 45.79C237.26 47.79 228.01 59.54 228.01 59.54C228.01 59.54 243.01 89.05 248.76 99.55C254.51 110.05 260.26 124.31 260.26 125.81C260.26 127.31 247.76 153.57 244.51 160.07C241.26 166.57 231.26 186.83 231.01 191.33C230.75 195.82 260.51 215.58 260.51 215.58Z" fill="#808080" stroke="black" stroke-width="2" stroke-miterlimit="10"/>
<path d="M227.15 46.95C227.15 46.95 222.12 46.03 218.65 42.48C215.17 38.93 212.91 36.05 212.91 36.05L222.5 26.2L224.44 26.79C224.44 26.79 227.71 22.58 230.96 18.78C234.21 14.98 243.41 7.28999 248.78 4.70999C254.15 2.12999 257.63 0.509989 259.04 1.39999C260.45 2.27999 261.97 5.64999 261.97 5.64999C261.97 5.64999 254.57 12.28 251.21 16.18C247.85 20.08 245.32 31.76 245.15 33.3C244.99 34.84 244.75 38.04 242.9 37.96C241.05 37.88 237.19 38.66 236.3 37.7C235.41 36.73 234.34 37.52 232.32 38.99C230.3 40.46 227.15 46.95 227.15 46.95Z" fill="#808080" stroke="black" stroke-width="2" stroke-miterlimit="10"/>
<path d="M239.32 31.38C239.32 31.38 243.59 31.85 244.83 31.43" stroke="black" stroke-width="2" stroke-linecap="round" stroke-linejoin="round"/>
<path d="M240.47 27.14C240.47 27.14 244.74 27.61 245.98 27.19" stroke="black" stroke-width="2" stroke-linecap="round" stroke-linejoin="round"/>
<path d="M241.94 23.34C241.94 23.34 246.21 23.81 247.45 23.39" stroke="black" stroke-width="2" stroke-linecap="round" stroke-linejoin="round"/>
<path d="M239.52 498.12C239.52 498.12 269.18 485.91 276.14 463.96C279.26 454.13 296.74 430 301.34 426.72C305.94 423.44 311.48 419.14 311.48 419.14C311.48 419.14 301.42 431.28 299.42 449.68C297.42 468.07 294.11 473.44 294.11 473.44C294.11 473.44 300.48 470.93 307.11 462.79C313.74 454.65 323.79 446.68 323.79 446.68C323.79 446.68 315.54 468.95 313.51 477.99C311.48 487.03 302.79 494.87 302.79 494.87C302.79 494.87 308.91 495.25 314.15 491.57C316 490.27 320.24 485.35 320.24 485.35C320.24 485.35 316.28 498.04 306.9 501.26C297.51 504.48 284.68 500.76 273.11 498.13C261.53 495.5 239.52 498.12 239.52 498.12Z" fill="white"/>
<path d="M158.94 269.02C158.94 269.02 161.35 260.26 167.92 251.93C174.49 243.6 179.53 239.01 181.72 228.71C183.91 218.41 192.67 195.85 193.11 190.15C193.55 184.45 197.49 174.16 197.49 174.16C197.49 174.16 202.97 181.61 220.93 186.87C238.89 192.13 257.08 205.27 259.27 209C261.46 212.73 264.09 215.79 264.09 215.79C264.09 215.79 252.04 246.46 250.29 257.63C248.54 268.8 247.88 277.35 252.04 289.39C256.2 301.43 258.83 341.09 257.08 354.89C255.33 368.69 251.82 380.74 250.07 385.56C248.32 390.38 245.91 408.56 245.91 408.56C245.91 408.56 237.37 412.94 227.51 410.09C217.65 407.24 213.49 401.33 213.49 401.33C213.49 401.33 221.16 379.2 222.03 369.57C222.91 359.93 223.34 344.38 220.72 336.49C218.09 328.6 215.24 320.72 215.24 320.72C215.24 320.72 211.08 324.01 203.63 320.72C196.18 317.43 183.57 283.91 178.97 281.5C174.36 279.09 158.94 269.02 158.94 269.02Z" fill="#808080" stroke="black" stroke-width="2" stroke-miterlimit="10"/>
<path d="M186.92 293.97C187.29 294.09 201.16 300.9 201.16 301.39C201.16 301.88 212.56 326.21 212.56 326.21C212.56 326.21 199.49 320.59 193.51 315.83C187.53 311.07 182.76 297.88 183.62 295.8C184.48 293.73 186.92 293.97 186.92 293.97Z" fill="#808080" stroke="black" stroke-width="2" stroke-miterlimit="10"/>
<path d="M41.54 237.35C41.54 237.35 35.78 256.08 52.53 267.4C67.27 277.36 72.34 283.31 77.22 290.14C81.17 295.67 86.38 307.47 86.38 307.47L108.66 272.54C108.66 272.54 106.88 260.82 96.19 250.9C85.5 240.98 75.83 213.18 75.83 213.18L41.54 237.35Z" fill="white" stroke="black" stroke-width="2" stroke-linecap="round" stroke-linejoin="round"/>
<path d="M51.9399 243.16L70.8599 229.54" stroke="black" stroke-width="2" stroke-linecap="round" stroke-linejoin="round"/>
<path d="M55.6899 259.09L81.2399 240.1" stroke="black" stroke-width="2" stroke-linecap="round" stroke-linejoin="round"/>
<path d="M73.9299 257.17L85.8399 247.89" stroke="black" stroke-width="2" stroke-linecap="round" stroke-linejoin="round"/>
<path d="M132.21 471.73C132.21 471.73 146.63 475.33 155.9 465.55C165.17 455.77 180.1 433.62 180.1 433.62L218.72 470.18C218.72 470.18 190.34 493.52 180.61 500.56C162.98 513.32 149.71 511.89 149.71 511.89L132.21 471.73Z" fill="white" stroke="black" stroke-width="2" stroke-linecap="round" stroke-linejoin="round"/>
<path d="M180.28 450.55L199.06 469.51" stroke="black" stroke-width="2" stroke-linecap="round" stroke-linejoin="round"/>
<path d="M170.14 460.5L188.92 479.46" stroke="black" stroke-width="2" stroke-linecap="round" stroke-linejoin="round"/>
<path d="M164.32 467.25L172.77 476.45" stroke="black" stroke-width="2" stroke-linecap="round" stroke-linejoin="round"/>
<path d="M154.87 305.41C154.87 305.41 156.45 307.94 156.76 309.89C157.07 311.84 156.66 312.56 156.66 312.56L160.66 311.64" stroke="black" stroke-width="2" stroke-linecap="round" stroke-linejoin="round"/>
<path d="M168.218 320.032C168.658 319.153 168.022 317.943 166.797 317.33C165.572 316.717 164.222 316.932 163.782 317.812C163.342 318.691 163.979 319.9 165.204 320.514C166.428 321.127 167.778 320.911 168.218 320.032Z" stroke="black" stroke-width="2" stroke-linecap="round" stroke-linejoin="round"/>
<path d="M139.14 305.5L163.2 290.44C163.2 290.44 166.09 294.59 165.77 297.56C165.45 300.53 159.19 303.74 157.83 303.5C156.47 303.26 151.81 299.57 150.93 300.13C150.05 300.69 152.61 307.35 151.97 308.23C151.33 309.11 145.24 312.35 143.63 312.19C141.15 311.94 139.14 305.5 139.14 305.5Z" stroke="black" stroke-width="2" stroke-linecap="round" stroke-linejoin="round"/>
<path d="M184.23 300.04C184.23 300.04 182.02 298.56 182.29 296.53C182.56 294.5 183.07 288.98 179.93 287.72C176.93 286.52 175.31 288.89 174.29 290.64C173.27 292.39 169.69 294.19 165.73 291.89C162.98 290.3 151.84 281.94 151.84 281.94C151.84 281.94 150.05 290.73 144.55 292.37C139.95 293.74 141.69 301.69 139 303.38C131.46 308.11 121.39 297.72 121.39 297.72C121.39 297.72 130.17 295.34 131.9 288.76C134.2 279.99 137.73 266.9 151.29 263.67C164.85 260.44 171.96 263.49 175.74 268.47C179.52 273.45 180.54 274.56 183.68 277.33C186.82 280.1 189.22 283.14 190.51 287.3C190.51 287.3 191.34 293.02 189.4 295.88C187.46 298.74 184.23 300.04 184.23 300.04Z" fill="black"/>
<path d="M179.48 327.23C179.48 327.23 184.32 330.39 187.48 330.95C190.64 331.51 194.55 328.35 194.55 328.35L187.48 319.42L179.48 327.23Z" fill="#419FFE" stroke="black" stroke-width="2" stroke-linecap="round" stroke-linejoin="round"/>
<path d="M192.12 327.79C192.12 327.79 198.59 326.84 203.36 325.63C212.93 323.2 221.29 316 225.9 312.5C232.71 307.31 243.41 299.69 253.62 290.45C257.14 287.27 260.75 278.32 260.75 278.32L277.86 267.91L282.32 283.9C282.32 283.9 276.37 298.78 262.61 309.01C248.85 319.24 224.49 331.7 207.93 332.81C191.38 333.93 187.47 330.95 187.47 330.95L192.12 327.79Z" fill="#419FFE" stroke="black" stroke-width="2" stroke-linecap="round" stroke-linejoin="round"/>
<path d="M227.6 445.01C227.6 445.01 227.5 429.59 226.62 425.26" stroke="black" stroke-width="2" stroke-linecap="round" stroke-linejoin="round"/>
<path d="M233.15 443.79C233.15 443.79 233.05 428.37 232.17 424.04" stroke="black" stroke-width="2" stroke-linecap="round" stroke-linejoin="round"/>
</svg>
