<svg width="21" height="21" viewBox="0 0 21 21" fill="none" xmlns="http://www.w3.org/2000/svg">
<path d="M19.6686 13.58L15.1581 9.07C15.2525 8.60938 15.2993 8.14024 15.2978 7.67C15.2975 6.38065 14.9728 5.1122 14.3537 3.98189C13.7347 2.85157 12.8413 1.89588 11.7562 1.20314C10.671 0.510408 9.42909 0.102988 8.14521 0.0185415C6.86133 -0.0659047 5.57693 0.175349 4.41072 0.720002C4.26297 0.78764 4.13393 0.8904 4.0348 1.01936C3.93568 1.14832 3.86946 1.29958 3.84192 1.46C3.81448 1.61839 3.82555 1.78107 3.87419 1.93426C3.92283 2.08745 4.0076 2.22663 4.12133 2.34L8.46219 6.68L6.66597 8.48L2.33509 4.13C2.221 4.0178 2.08168 3.93472 1.92886 3.88773C1.77604 3.84074 1.61419 3.83123 1.45694 3.86C1.29785 3.8866 1.14757 3.95143 1.01897 4.04896C0.890358 4.14649 0.787257 4.27381 0.718491 4.42C0.173164 5.59251 -0.0673736 6.88418 0.0192545 8.17487C0.105883 9.46555 0.516862 10.7133 1.21396 11.8021C1.91106 12.8908 2.87163 13.7852 4.00631 14.4021C5.141 15.0189 6.41293 15.3381 7.70379 15.33C8.17304 15.3315 8.64119 15.2846 9.10085 15.19L13.6014 19.71C13.6941 19.8037 13.8045 19.8781 13.9261 19.9289C14.0477 19.9797 14.1782 20.0058 14.3099 20.0058C14.4416 20.0058 14.5721 19.9797 14.6937 19.9289C14.8153 19.8781 14.9256 19.8037 15.0184 19.71C15.1119 19.617 15.1862 19.5064 15.2368 19.3846C15.2875 19.2627 15.3136 19.132 15.3136 19C15.3136 18.868 15.2875 18.7373 15.2368 18.6154C15.1862 18.4936 15.1119 18.383 15.0184 18.29L10.1287 13.39C10.0065 13.2684 9.85497 13.1805 9.68884 13.1349C9.52272 13.0894 9.34765 13.0877 9.18068 13.13C8.69887 13.2593 8.20257 13.3265 7.70379 13.33C6.95741 13.3366 6.2171 13.1951 5.52551 12.9138C4.83393 12.6324 4.20473 12.2167 3.67416 11.6906C3.14359 11.1645 2.72215 10.5384 2.4341 9.84835C2.14605 9.15831 1.99709 8.41798 1.9958 7.67C1.99451 7.33502 2.02121 7.00052 2.07563 6.67L5.9874 10.6C6.08017 10.6937 6.19054 10.7681 6.31214 10.8189C6.43375 10.8697 6.56418 10.8958 6.69591 10.8958C6.82765 10.8958 6.95808 10.8697 7.07968 10.8189C7.20128 10.7681 7.31165 10.6937 7.40442 10.6L10.5777 7.39C10.7576 7.20354 10.8581 6.95434 10.8581 6.695C10.8581 6.43566 10.7576 6.18647 10.5777 6L6.69591 2.08C7.0258 2.02601 7.35955 1.99926 7.69381 2C9.1927 2.00265 10.6293 2.60119 11.6882 3.66424C12.7472 4.72728 13.3419 6.16796 13.3419 7.67C13.3384 8.16983 13.2714 8.66717 13.1423 9.15C13.1001 9.31733 13.1018 9.49276 13.1473 9.65923C13.1927 9.8257 13.2804 9.97755 13.4018 10.1L18.2915 15C18.4794 15.1883 18.7343 15.2941 19 15.2941C19.2658 15.2941 19.5206 15.1883 19.7085 15C19.8964 14.8117 20.002 14.5563 20.002 14.29C20.002 14.0237 19.8964 13.7683 19.7085 13.58H19.6686Z" fill="#DEDFE1"/>
</svg>
