<svg width="456" height="525" viewBox="0 0 456 525" fill="none" xmlns="http://www.w3.org/2000/svg">
<path d="M44.8402 490.66C50.1753 490.66 54.5002 486.335 54.5002 481C54.5002 475.665 50.1753 471.34 44.8402 471.34C39.5051 471.34 35.1802 475.665 35.1802 481C35.1802 486.335 39.5051 490.66 44.8402 490.66Z" fill="white" stroke="black" stroke-width="2" stroke-miterlimit="10" stroke-linecap="round" stroke-linejoin="round"/>
<path d="M49.2699 490.66C54.6049 490.66 58.9299 486.335 58.9299 481C58.9299 475.665 54.6049 471.34 49.2699 471.34C43.9348 471.34 39.6099 475.665 39.6099 481C39.6099 486.335 43.9348 490.66 49.2699 490.66Z" fill="white" stroke="black" stroke-width="2" stroke-miterlimit="10" stroke-linecap="round" stroke-linejoin="round"/>
<path d="M194.91 504.25C200.245 504.25 204.57 499.925 204.57 494.59C204.57 489.255 200.245 484.93 194.91 484.93C189.575 484.93 185.25 489.255 185.25 494.59C185.25 499.925 189.575 504.25 194.91 504.25Z" fill="white" stroke="black" stroke-width="2" stroke-miterlimit="10" stroke-linecap="round" stroke-linejoin="round"/>
<path d="M199.35 504.25C204.685 504.25 209.01 499.925 209.01 494.59C209.01 489.255 204.685 484.93 199.35 484.93C194.015 484.93 189.69 489.255 189.69 494.59C189.69 499.925 194.015 504.25 199.35 504.25Z" fill="white" stroke="black" stroke-width="2" stroke-miterlimit="10" stroke-linecap="round" stroke-linejoin="round"/>
<path d="M102.5 153.5L102 143.5L116.5 115L134.5 110L140.5 118L142.5 124L142 129.5L144.5 132L149.5 138.5L146 141.5L147.5 146.5V152L136 156L130 153L119.5 149L113.5 150L102.5 153.5Z" fill="white"/>
<path d="M347.92 482.63L349.98 523.88H222.63L230.88 494.49L234.59 482.63H347.92Z" fill="white" stroke="black" stroke-width="2" stroke-miterlimit="10" stroke-linecap="round" stroke-linejoin="round"/>
<path d="M312.86 301.14H270.58V503.25H312.86V301.14Z" fill="white" stroke="black" stroke-width="2" stroke-miterlimit="10" stroke-linecap="round" stroke-linejoin="round"/>
<path d="M232.46 487.53H204.88L207.23 459.84L232.46 460.83V487.53Z" fill="white" stroke="black" stroke-width="2" stroke-miterlimit="10" stroke-linecap="round" stroke-linejoin="round"/>
<path d="M113.03 380.6H100.75V433.93H113.03V380.6Z" fill="white" stroke="black" stroke-width="2" stroke-miterlimit="10" stroke-linecap="round" stroke-linejoin="round"/>
<path d="M115.53 431.69H97.5999V437.97L10.3799 484.15V493.79H16.6599V488.41L101.41 457.7L112.62 503.21H117.1L114.86 456.13L194 480.79V485.27H202.3V476.98L115.53 437.07V431.69Z" fill="white" stroke="black" stroke-width="2" stroke-miterlimit="10" stroke-linecap="round" stroke-linejoin="round"/>
<path d="M111.85 520.22C117.185 520.22 121.51 515.895 121.51 510.56C121.51 505.225 117.185 500.9 111.85 500.9C106.515 500.9 102.19 505.225 102.19 510.56C102.19 515.895 106.515 520.22 111.85 520.22Z" fill="white" stroke="black" stroke-width="2" stroke-miterlimit="10" stroke-linecap="round" stroke-linejoin="round"/>
<path d="M116.29 520.22C121.625 520.22 125.95 515.895 125.95 510.56C125.95 505.225 121.625 500.9 116.29 500.9C110.955 500.9 106.63 505.225 106.63 510.56C106.63 515.895 110.955 520.22 116.29 520.22Z" fill="white" stroke="black" stroke-width="2" stroke-miterlimit="10" stroke-linecap="round" stroke-linejoin="round"/>
<path d="M148.13 490.66C153.465 490.66 157.79 486.335 157.79 481C157.79 475.665 153.465 471.34 148.13 471.34C142.795 471.34 138.47 475.665 138.47 481C138.47 486.335 142.795 490.66 148.13 490.66Z" fill="white" stroke="black" stroke-width="2" stroke-miterlimit="10" stroke-linecap="round" stroke-linejoin="round"/>
<path d="M152.57 490.66C157.905 490.66 162.23 486.335 162.23 481C162.23 475.665 157.905 471.34 152.57 471.34C147.235 471.34 142.91 475.665 142.91 481C142.91 486.335 147.235 490.66 152.57 490.66Z" fill="white" stroke="black" stroke-width="2" stroke-miterlimit="10" stroke-linecap="round" stroke-linejoin="round"/>
<path d="M182.84 387.06H76.1798C64.9298 387.06 55.8198 377.94 55.8198 366.7C55.8198 355.45 64.9398 346.34 76.1798 346.34H182.84C194.09 346.34 203.2 355.46 203.2 366.7C203.2 377.94 194.08 387.06 182.84 387.06Z" fill="#419FFE" stroke="black" stroke-width="2" stroke-linecap="round" stroke-linejoin="round"/>
<path d="M10.66 510.08C15.9951 510.08 20.32 505.755 20.32 500.42C20.32 495.085 15.9951 490.76 10.66 490.76C5.32493 490.76 1 495.085 1 500.42C1 505.755 5.32493 510.08 10.66 510.08Z" fill="white" stroke="black" stroke-width="2" stroke-miterlimit="10" stroke-linecap="round" stroke-linejoin="round"/>
<path d="M15.0902 510.08C20.4253 510.08 24.7502 505.755 24.7502 500.42C24.7502 495.085 20.4253 490.76 15.0902 490.76C9.75511 490.76 5.43018 495.085 5.43018 500.42C5.43018 505.755 9.75511 510.08 15.0902 510.08Z" fill="white" stroke="black" stroke-width="2" stroke-miterlimit="10" stroke-linecap="round" stroke-linejoin="round"/>
<path d="M158.71 305.73C158.71 305.73 228.29 317.54 244.36 325.07C260.44 332.61 255.91 347.93 255.91 373.8C255.91 399.67 253.15 461.46 253.15 461.46C253.15 461.46 240.59 467.49 229.79 467.99C218.99 468.49 200.9 465.23 200.9 465.23C200.9 465.23 204.67 410.72 205.67 397.16C206.67 383.6 209.19 366.01 208.43 364.51C207.68 363 98.0499 367.65 86.4699 359.09C71.2599 347.86 72.2899 331.1 79.5799 307.99C86.8699 284.88 158.71 305.73 158.71 305.73Z" fill="white" stroke="black" stroke-width="2" stroke-miterlimit="10" stroke-linecap="round" stroke-linejoin="round"/>
<path d="M285.67 72.77L283.07 132.86L369.45 144.13L382.45 76.53C382.45 76.53 367.43 79.42 335.36 77.11C305.97 74.98 285.67 72.77 285.67 72.77Z" fill="white" stroke="black" stroke-width="2" stroke-miterlimit="10" stroke-linecap="round" stroke-linejoin="round"/>
<path d="M257.06 93.8601C256.77 94.1501 294.04 123.33 294.04 123.33C294.04 123.33 292.31 153.67 287.11 174.18C281.91 194.69 283.35 203.65 283.35 203.65L244.64 153.67C244.64 153.67 250.71 142.98 252.15 130.27C253.59 117.56 257.06 93.8601 257.06 93.8601Z" fill="#419FFE" stroke="black" stroke-width="2" stroke-linecap="round" stroke-linejoin="round"/>
<path d="M373.57 5.93C373.57 5.93 378.2 17.73 388.38 24.9C394.13 28.95 412.24 34.78 428.87 38.74C441.69 41.79 454.53 43.57 454.53 43.57C454.53 43.57 439.72 26.91 435.56 19.28C431.4 11.65 427.46 1 427.46 1C427.46 1 374.06 7.16 373.57 5.93Z" fill="#419FFE" stroke="black" stroke-width="2" stroke-linecap="round" stroke-linejoin="round"/>
<path d="M382.27 19.6001C382.27 19.6001 392.52 25.3501 400.65 23.8501C408.78 22.3501 410.9 20.6001 410.9 20.6001C410.9 20.6001 418.4 35.6001 427.03 38.2301C435.66 40.8601 407.43 35.3501 396.92 30.6001C388.95 26.9901 382.27 19.6001 382.27 19.6001Z" fill="#419FFE" stroke="black" stroke-width="2" stroke-linecap="round" stroke-linejoin="round"/>
<path d="M362.98 90.79L425.02 94.62C425.02 94.62 418.73 136.16 404.79 151.74C390.85 167.32 368.99 171.42 368.99 171.42L330.45 164.31L362.98 90.79Z" fill="white" stroke="black" stroke-width="2" stroke-miterlimit="10" stroke-linecap="round" stroke-linejoin="round"/>
<path d="M368.99 171.42L377.19 155.57L401.79 154.48" fill="white"/>
<path d="M368.99 171.42L377.19 155.57L401.79 154.48" stroke="black" stroke-width="2" stroke-miterlimit="10" stroke-linecap="round" stroke-linejoin="round"/>
<path d="M433.16 316.54H166.46V324.54H433.16V316.54Z" fill="white" stroke="black" stroke-width="2" stroke-miterlimit="10" stroke-linecap="round" stroke-linejoin="round"/>
<path d="M433.16 316.54L406.82 266.53C406.82 266.53 194.79 265.2 194.79 266.53C194.79 267.86 166.45 316.54 166.45 316.54H433.16Z" fill="white" stroke="black" stroke-width="2" stroke-miterlimit="10" stroke-linecap="round" stroke-linejoin="round"/>
<path d="M201.23 113.4L208.32 106.15L224.14 124.27L218.15 131.05" fill="white"/>
<path d="M201.23 113.4L208.32 106.15L224.14 124.27L218.15 131.05" stroke="black" stroke-width="2" stroke-linecap="round" stroke-linejoin="round"/>
<path d="M102.64 148.23L102.8 153.01" stroke="black" stroke-width="2" stroke-linecap="round" stroke-linejoin="round"/>
<path d="M348.18 238.89C348.18 238.89 351.59 253.02 362.31 263C373.03 272.99 381.8 278.59 381.8 278.59C381.8 278.59 335.76 277.37 322.37 278.1C308.97 278.83 299.96 267.87 290.7 259.1C281.44 250.33 271.7 241.56 271.46 241.81C271.22 242.05 306.29 242.54 321.64 240.59C336.97 238.65 348.18 238.89 348.18 238.89Z" fill="white" stroke="black" stroke-width="2" stroke-miterlimit="10" stroke-linecap="round" stroke-linejoin="round"/>
<path d="M349.18 296.63C349.18 296.63 361.72 270.61 361.03 271.08C360.33 271.54 377.29 274.56 389.6 269.92C401.91 265.27 416.08 253.66 416.08 253.66C416.08 253.66 425.37 258.07 433.97 268.53C442.57 278.99 446.51 289.2 446.51 289.2C446.51 289.2 428.39 299.89 397.03 301.05C365.68 302.2 349.18 296.63 349.18 296.63Z" fill="white" stroke="black" stroke-width="2" stroke-miterlimit="10" stroke-linecap="round" stroke-linejoin="round"/>
<path d="M134.75 110.24C134.75 110.24 141.84 119.32 142.28 122.42C142.72 125.52 142.06 129.73 142.06 129.73L150.03 138.15L146.49 141.69C146.49 141.69 147.82 146.12 146.93 150.55C146.04 154.98 144.48 155.35 144.48 155.35" stroke="black" stroke-width="2" stroke-linecap="round" stroke-linejoin="round"/>
<path d="M136.94 123.92C139.28 122.87 142.28 122.42 142.28 122.42" stroke="black" stroke-width="2" stroke-linecap="round" stroke-linejoin="round"/>
<path d="M146.77 147.82C146.77 147.82 144.08 148.64 141.22 148.34" stroke="black" stroke-width="2" stroke-linecap="round" stroke-linejoin="round"/>
<path d="M138.52 129.82C138.37 129.97 138.89 131.82 140.29 131.89C141.69 131.96 142.06 129.73 142.06 129.73C139.04 127.83 136.27 131.88 136.27 131.88" stroke="black" stroke-width="2" stroke-linecap="round" stroke-linejoin="round"/>
<path d="M115.75 133.812C115.545 133.766 115.286 133.712 114.986 133.657C114.232 133.519 113.201 133.371 112.123 133.347C111.059 133.322 109.869 133.414 108.84 133.811C107.781 134.219 106.826 134.982 106.458 136.289C106.231 137.093 106.318 137.92 106.519 138.667C106.72 139.418 107.056 140.162 107.409 140.836C107.726 141.441 108.074 142.024 108.375 142.529C108.411 142.588 108.445 142.646 108.479 142.703C108.813 143.263 109.047 143.67 109.165 143.955C109.165 143.976 109.165 144.105 108.993 144.401C108.781 144.765 108.407 145.205 107.902 145.683C106.902 146.631 105.564 147.563 104.572 148.133C103.785 148.585 102.697 148.7 101.681 148.522C101.183 148.435 100.744 148.284 100.409 148.103C100.061 147.916 99.8952 147.735 99.8356 147.627L99.8328 147.622C99.6053 147.215 99.1705 146.612 98.6298 145.906C98.0759 145.182 97.3705 144.298 96.568 143.309C95.6243 142.146 94.5353 140.823 93.3904 139.433C92.592 138.464 91.7664 137.461 90.9439 136.457C87.226 131.916 86.1832 124.869 89.7655 115.404L89.7655 115.404C91.8852 109.8 96.6884 105.888 101.966 103.406C107.246 100.923 112.85 99.9475 116.334 100.109C122.943 100.424 127.491 98.7351 130.408 96.9175C131.861 96.0121 132.898 95.0816 133.578 94.3675C133.596 94.3486 133.614 94.3299 133.632 94.3114C133.728 94.4851 133.831 94.6757 133.941 94.8818C134.538 96.0091 135.301 97.591 135.967 99.4112C137.318 103.104 138.185 107.549 136.75 111.183L136.75 111.183C135.324 114.8 131.701 115.958 127.606 116.536C126.642 116.672 125.68 116.773 124.739 116.871L124.62 116.884C123.65 116.985 122.695 117.086 121.823 117.224C120.954 117.36 120.121 117.539 119.4 117.81C118.683 118.079 117.999 118.468 117.512 119.073L117.511 119.073C116.852 119.892 116.318 121.342 116.197 123.019C116.073 124.731 116.371 126.776 117.495 128.804C118.179 130.043 117.807 131.26 117.072 132.336C116.71 132.866 116.289 133.311 115.953 133.627C115.88 133.695 115.812 133.757 115.75 133.812ZM115.406 134.096C115.406 134.096 115.406 134.096 115.406 134.096L115.406 134.096Z" fill="#4D4F51" stroke="black" stroke-width="2" stroke-linejoin="round"/>
<path d="M209 106.411C209 106.411 215.281 99.0519 216.434 93.5905C217.586 88.129 219.105 81.7085 220.625 77.7512C222.144 73.7939 222.909 66.061 224.244 65.112C225.58 64.1732 227.864 66.6162 228.242 68.504C228.619 70.3918 227.671 74.9144 227.671 74.9144C227.671 74.9144 248.34 60.5389 251.389 60.0745C254.438 59.6102 255.947 61.4677 255.947 61.4677C255.947 61.4677 259.812 59.9635 262.024 61.2355C264.237 62.5075 262.606 65.748 262.606 65.748C262.606 65.748 264.594 66.7878 264.941 68.7564C265.287 70.7249 264.003 71.9969 264.003 71.9969C264.003 71.9969 264.706 74.7731 264.349 76.5095C263.992 78.2458 250.43 93.651 243.884 97.9314C237.337 102.212 232.3 104.301 229.853 107.078C227.395 109.854 220.38 119 220.38 119" fill="white"/>
<path d="M209 106.411C209 106.411 215.281 99.0519 216.434 93.5905C217.586 88.129 219.105 81.7085 220.625 77.7512C222.144 73.7939 222.909 66.061 224.244 65.112C225.58 64.1732 227.864 66.6162 228.242 68.504C228.619 70.3918 227.671 74.9144 227.671 74.9144C227.671 74.9144 248.34 60.5389 251.389 60.0745C254.438 59.6102 255.947 61.4677 255.947 61.4677C255.947 61.4677 259.812 59.9635 262.024 61.2355C264.237 62.5075 262.606 65.748 262.606 65.748C262.606 65.748 264.594 66.7878 264.941 68.7564C265.287 70.7249 264.003 71.9969 264.003 71.9969C264.003 71.9969 264.706 74.7731 264.349 76.5095C263.992 78.2458 250.43 93.651 243.884 97.9314C237.337 102.212 232.3 104.301 229.853 107.078C227.395 109.854 220.38 119 220.38 119" stroke="black" stroke-width="2" stroke-linecap="round" stroke-linejoin="round"/>
<path d="M256.14 61.21L240.2 74.29" stroke="black" stroke-width="2" stroke-linecap="round" stroke-linejoin="round"/>
<path d="M262.56 65.3401L246.62 78.4201" stroke="black" stroke-width="2" stroke-linecap="round" stroke-linejoin="round"/>
<path d="M264.29 71.4199L248.34 84.4999" stroke="black" stroke-width="2" stroke-linecap="round" stroke-linejoin="round"/>
<path d="M201.07 113.4C201.07 113.4 168.81 140.46 163.75 144.88C160.55 147.67 137 155.67 136.23 155.67C135.46 155.67 125.6 150.09 119.44 149.32C113.27 148.55 95.3999 156.61 92.5099 158.73C89.6199 160.85 82.8099 165.6 80.1399 172.82C78.2399 177.96 72.2399 205.76 72.8199 216.17C73.3999 226.57 70.6699 326.39 70.6699 326.39C70.6699 326.39 92.5799 327.89 102.25 328.17C111.92 328.45 146.33 329.88 152.87 326.75C159.41 323.62 167.94 302.58 167.94 302.58C167.94 302.58 171.92 250.82 170.78 242C169.64 233.18 165.09 214.13 164.81 209.86C164.53 205.59 158.84 185.97 158.84 185.97C158.84 185.97 175.69 175.03 182.47 169.83C189.25 164.63 199.6 156.51 205.18 151.54C211.89 145.57 221.96 136.06 221.96 136.06L201.22 113.4H201.07Z" fill="white" stroke="black" stroke-width="2" stroke-miterlimit="10" stroke-linecap="round" stroke-linejoin="round"/>
<path d="M158.85 185.96C158.85 185.96 139.95 195.88 128.61 200.29C117.28 204.7 111.61 204.91 111.61 204.91" stroke="black" stroke-width="2" stroke-linecap="round" stroke-linejoin="round"/>
<path d="M212.82 263.3C212.82 263.3 242.5 263.49 248.15 263.3C253.8 263.11 258.97 267.51 262.03 269.91C265.09 272.3 269.21 276.04 269.21 276.04C269.21 276.04 267.2 276.9 265 276.9C262.8 276.9 255.23 273.64 253.8 272.97C252.36 272.3 254.76 274.79 253.9 276.13C253.04 277.47 249.02 277.66 245.47 277.37C241.93 277.08 232.54 276.8 228.43 276.89C224.31 276.99 220.48 275.45 217.8 275.07C215.12 274.69 213.3 275.45 213.11 275.17C212.92 274.89 212.82 263.3 212.82 263.3Z" fill="white" stroke="black" stroke-width="2" stroke-miterlimit="10" stroke-linecap="round" stroke-linejoin="round"/>
<path d="M253.8 272.97C253.8 272.97 251.79 271.63 246.24 271.25C240.69 270.87 238.58 270.39 238.58 270.39" fill="white"/>
<path d="M253.8 272.97C253.8 272.97 251.79 271.63 246.24 271.25C240.69 270.87 238.58 270.39 238.58 270.39" stroke="black" stroke-width="2" stroke-miterlimit="10" stroke-linecap="round" stroke-linejoin="round"/>
<path d="M170.5 253.74C170.5 254.61 214.84 260.28 214.84 260.28L215.71 280.47L169.1 283.55L170.5 253.74Z" fill="white" stroke="black" stroke-width="2" stroke-miterlimit="10" stroke-linecap="round" stroke-linejoin="round"/>
<path d="M120.45 374.64C116.88 374.64 113.99 371.75 113.99 368.18V321.26C113.99 317.69 116.88 314.8 120.45 314.8C124.02 314.8 126.91 317.69 126.91 321.26V368.18C126.9 371.75 124.01 374.64 120.45 374.64Z" fill="#4D4F51" stroke="#231F20" stroke-width="2" stroke-miterlimit="10" stroke-linecap="round" stroke-linejoin="round"/>
<path d="M150.85 319.15H93.0801C90.3101 319.15 88.0601 316.9 88.0601 314.13C88.0601 311.36 90.3101 309.11 93.0801 309.11H150.85C153.62 309.11 155.87 311.36 155.87 314.13C155.86 316.91 153.62 319.15 150.85 319.15Z" fill="#419FFE" stroke="black" stroke-width="2" stroke-linecap="round" stroke-linejoin="round"/>
<path d="M205.09 479.48C205.09 479.48 200.42 485.7 200.2 493.26C199.98 500.82 200.42 506.37 200.42 506.37L221.31 507.48L222.87 504.81C222.87 504.81 230.87 506.14 238.43 507.03C245.99 507.92 264.21 507.03 272.88 504.36C281.55 501.69 287.11 499.91 287.77 497.47C288.44 495.02 286.66 489.69 286.66 489.69C286.66 489.69 271.55 489.91 263.77 489.02C255.99 488.13 241.1 477.68 239.32 476.13C237.54 474.58 233.99 471.24 231.99 473.24C229.99 475.24 224.88 478.35 224.88 480.35C224.88 482.35 222.88 482.57 219.1 483.02C215.31 483.48 205.09 479.48 205.09 479.48Z" fill="#4D4F51" stroke="#231F20" stroke-width="2" stroke-miterlimit="10" stroke-linecap="round" stroke-linejoin="round"/>
<path d="M234.77 484.31C234.77 484.31 239.06 479.38 240.88 478.56" stroke="black" stroke-width="2" stroke-linecap="round" stroke-linejoin="round"/>
<path d="M240.43 487.87C240.43 487.87 244.72 482.94 246.54 482.12" stroke="black" stroke-width="2" stroke-linecap="round" stroke-linejoin="round"/>
<path d="M246 490.61C246 490.61 250.29 485.68 252.11 484.86" stroke="black" stroke-width="2" stroke-linecap="round" stroke-linejoin="round"/>
<path d="M67.1798 355.87C61.0598 355.87 56.0898 350.91 56.0898 344.78V192.31C56.0898 186.19 61.0498 181.22 67.1798 181.22C73.2998 181.22 78.2699 186.18 78.2699 192.31V344.78C78.2599 350.9 73.2998 355.87 67.1798 355.87Z" fill="#419FFE" stroke="black" stroke-width="2" stroke-linecap="round" stroke-linejoin="round"/>
</svg>
